<svg xmlns="http://www.w3.org/2000/svg" id="Layer_1" data-name="Layer 1" viewBox="0 0 612.12 292.49"><defs><style> .cls-1 { fill: #ee3524; fill-rule: evenodd; } .cls-2 { fill: #fff; } </style></defs><g><path class="cls-1" d="M134.78,110h56.07l-5.38,18.39H148.91l-6.28,21.31h36.56L174,167.85H137.47l-8.07,27.36h36.78l-5.38,17.94H104.5L134.78,110ZM370.29,37.53C534.49,60.85,650,114.91,650,177.49,650,261.38,442.75,330,188.84,330a1343.06,1343.06,0,0,1-151-8.53c15.48.45,31,.9,46.88.9,253.91,0,460.94-71.78,460.94-159.7,0-50.7-68.64-96-175.41-125.16ZM479.76,215.17a52.94,52.94,0,1,0-52.94-52.93,53,53,0,0,0,52.94,52.93ZM318.48,110h62.81l-5.16,18.39H354.37l-24.9,84.78H310.41l24.67-84.78h-22L318.48,110ZM297.4,129.27l-17.95,10.31c-3.81-5.38-7.62-9-11.66-11-4-2.24-8.75-3.14-14.35-3.14-11.89,0-22.44,4.71-31.41,14.36a48.48,48.48,0,0,0-13,25.34c-1.57,9.2.23,16.83,5.39,23.11s12.11,9.42,21.08,9.42a36.91,36.91,0,0,0,18.84-4.94c6.06-3.14,11.22-8.07,15.7-14.35H238l5.16-18.4h52.26c-3.37,17-11,30.73-22.43,40.83a61,61,0,0,1-40.6,15c-16.6,0-28.93-5.84-36.56-17.5-6.28-9.2-8.3-20.41-6.28-33.2,2.47-15.7,10.32-29.16,23.55-40.6,13-11.43,27.37-17.27,43.07-17.27a51.28,51.28,0,0,1,16.59,2.7,43.71,43.71,0,0,1,13.69,7,49.6,49.6,0,0,1,11,12.34Z" transform="translate(-37.88 -37.53)"></path><g><path class="cls-2" d="M126.75,242.62a11.37,11.37,0,0,0-7.2-9.61,18.78,18.78,0,0,0-7.36-1.33h-12L89.59,268.77h12a24.72,24.72,0,0,0,8.11-1.33,25.24,25.24,0,0,0,12.72-9.61,25.86,25.86,0,0,0,3.56-7.6A19.43,19.43,0,0,0,126.75,242.62ZM117,255.74a16.14,16.14,0,0,1-3.84,4,16.35,16.35,0,0,1-4.76,2.38,17.84,17.84,0,0,1-5.31.8H97.68l7.26-25.33h5.41a13.76,13.76,0,0,1,4.86.8,7.82,7.82,0,0,1,3.39,2.38,7.51,7.51,0,0,1,1.56,4,14.51,14.51,0,0,1-.62,5.51A18.72,18.72,0,0,1,117,255.74Z" transform="translate(-37.88 -37.53)"></path><path class="cls-2" d="M152,231.68l-10.64,37.09h-6.3l10.63-37.09Z" transform="translate(-37.88 -37.53)"></path><path class="cls-2" d="M181.19,249.38H199a28.78,28.78,0,0,1-3.27,7.71,28.27,28.27,0,0,1-5.34,6.43,24.49,24.49,0,0,1-7,4.43,21.8,21.8,0,0,1-8.36,1.61,17.92,17.92,0,0,1-7.33-1.4,12.21,12.21,0,0,1-5-4,12.88,12.88,0,0,1-2.29-6.15,20,20,0,0,1,.8-7.78,25.75,25.75,0,0,1,3.69-7.77,26.89,26.89,0,0,1,13.14-10,24.58,24.58,0,0,1,8.17-1.4,18.58,18.58,0,0,1,6.37,1,12,12,0,0,1,4.52,2.81,11.56,11.56,0,0,1,2.7,4.42l-6.07,3.44a7.83,7.83,0,0,0-3-4.26,10.39,10.39,0,0,0-6.14-1.62,15.43,15.43,0,0,0-5.33,1,17.58,17.58,0,0,0-4.88,2.7,18.94,18.94,0,0,0-4,4.24,18.59,18.59,0,0,0-2.59,5.51,14.76,14.76,0,0,0-.6,5.51,9.24,9.24,0,0,0,1.5,4.29,7.87,7.87,0,0,0,3.32,2.75,11.45,11.45,0,0,0,4.84,1,14.86,14.86,0,0,0,8.62-2.62,17,17,0,0,0,3.21-2.88,20.41,20.41,0,0,0,2.42-3.55H179.67Z" transform="translate(-37.88 -37.53)"></path><path class="cls-2" d="M225.12,231.68l-10.63,37.09h-6.3l10.63-37.09Z" transform="translate(-37.88 -37.53)"></path><path class="cls-2" d="M238,231.68h25.85l-1.66,5.78h-9.8l-9,31.31h-6.3l9-31.31h-9.75Z" transform="translate(-37.88 -37.53)"></path><path class="cls-2" d="M286,268.77h7l-6.89-39.15-29.35,39.15h7.05l7-9.54H284.5Zm-1.8-14.84H274.16l8.41-11.76Z" transform="translate(-37.88 -37.53)"></path><path class="cls-2" d="M322.59,231.68l-9,31.47h14.73l-1.61,5.62h-21l10.63-37.09Z" transform="translate(-37.88 -37.53)"></path></g></g></svg>